<?xml version="1.0" encoding="UTF-8" standalone="no"?>
<!-- Created with Inkscape (http://www.inkscape.org/) -->

<svg
   width="57.700001"
   height="84.599998"
   viewBox="0 0 15.266459 22.383751"
   version="1.1"
   id="svg187"
   inkscape:version="1.1.2 (b8e25be833, 2022-02-05)"
   sodipodi:docname="logo-white.svg"
   xmlns:inkscape="http://www.inkscape.org/namespaces/inkscape"
   xmlns:sodipodi="http://sodipodi.sourceforge.net/DTD/sodipodi-0.dtd"
   xmlns="http://www.w3.org/2000/svg"
   xmlns:svg="http://www.w3.org/2000/svg">
  <sodipodi:namedview
     id="namedview189"
     pagecolor="#ffffff"
     bordercolor="#666666"
     borderopacity="1.0"
     inkscape:pageshadow="2"
     inkscape:pageopacity="0.0"
     inkscape:pagecheckerboard="0"
     inkscape:document-units="px"
     showgrid="false"
     width="209mm"
     units="px"
     inkscape:zoom="5.9223906"
     inkscape:cx="38.244691"
     inkscape:cy="56.396145"
     inkscape:window-width="1920"
     inkscape:window-height="1017"
     inkscape:window-x="1912"
     inkscape:window-y="-8"
     inkscape:window-maximized="1"
     inkscape:current-layer="layer1" />
  <defs
     id="defs184">
    <filter
       style="color-interpolation-filters:sRGB;"
       inkscape:label="Invert"
       id="filter14"
       x="0"
       y="0"
       width="1"
       height="1">
      <feColorMatrix
         type="hueRotate"
         values="180"
         result="color1"
         id="feColorMatrix10" />
      <feColorMatrix
         values="-1 0 0 0 1 0 -1 0 0 1 0 0 -1 0 1 -0.21 -0.72 -0.07 2 0 "
         result="color2"
         id="feColorMatrix12" />
    </filter>
  </defs>
  <g
     inkscape:label="Layer 1"
     inkscape:groupmode="layer"
     id="layer1">
    <g
       id="g10"
       transform="scale(0.26458333)"
       style="filter:url(#filter14)">
      <path
         class="st0"
         d="M 57.6,69.6 V 12.8 L 28.5,0 0,12.8 v 56.8 h 21.6 v 15 h 5 v -15 H 31 v 15 h 5 v -15 z M 4.9,64.6 V 16 L 28.5,5.4 52.7,16 V 64.6 H 38.6 l 7,-7 -3.6,-3.5 -6.1,6.1 V 25.8 h -5 V 46.2 L 26.5,38 V 25.8 h -5 v 22.5 l -5.2,-5.2 -3.5,3.5 8.7,8.7 v 9.3 z m 21.6,0 V 48.4 l 4.4,8.1 v 8.1 z"
         id="path4" />
      <rect
         x="0"
         y="73.900002"
         class="st0"
         width="16.799999"
         height="4.4000001"
         id="rect6" />
      <rect
         x="40.900002"
         y="73.900002"
         class="st0"
         width="16.799999"
         height="4.4000001"
         id="rect8" />
    </g>
  </g>
</svg>
